<svg width="24" height="24" viewBox="0 0 24 24" fill="none" xmlns="http://www.w3.org/2000/svg">
<g clip-path="url(#clip0)">
<path d="M18.75 8.99999H18V5.99999C18 2.69099 15.309 -7.62939e-06 12 -7.62939e-06C8.69099 -7.62939e-06 5.99999 2.69099 5.99999 5.99999V8.99999H5.24999C4.00999 8.99999 2.99999 10.009 2.99999 11.25V21.75C2.99999 22.991 4.00999 24 5.24999 24H18.75C19.99 24 21 22.991 21 21.75V11.25C21 10.009 19.99 8.99999 18.75 8.99999ZM7.99999 5.99999C7.99999 3.79399 9.79399 1.99999 12 1.99999C14.206 1.99999 16 3.79399 16 5.99999V8.99999H7.99999V5.99999ZM13 16.722V19C13 19.552 12.553 20 12 20C11.447 20 11 19.552 11 19V16.722C10.405 16.375 9.99999 15.737 9.99999 15C9.99999 13.897 10.897 13 12 13C13.103 13 14 13.897 14 15C14 15.737 13.595 16.375 13 16.722Z" fill="#EEEEEE" fill-opacity="0.25"/>
</g>
<defs>
<clipPath id="clip0">
<rect width="24" height="24" fill="white"/>
</clipPath>
</defs>
</svg>
