<svg width="24" height="24" viewBox="0 0 24 24" fill="none" xmlns="http://www.w3.org/2000/svg">
<path d="M15.909 12.123L24 17.238V6.792L15.909 12.123Z" fill="#EEEEEE" fill-opacity="0.25"/>
<path d="M0 6.792V17.238L8.091 12.123L0 6.792Z" fill="#EEEEEE" fill-opacity="0.25"/>
<path d="M22.5 3.75H1.49999C0.751494 3.75 0.157494 4.308 0.0449944 5.0265L12 12.903L23.955 5.0265C23.8425 4.308 23.2485 3.75 22.5 3.75Z" fill="#EEEEEE" fill-opacity="0.25"/>
<path d="M14.535 13.029L12.4125 14.427C12.2865 14.5095 12.144 14.55 12 14.55C11.856 14.55 11.7135 14.5095 11.5875 14.427L9.465 13.0275L0.0479965 18.984C0.163497 19.6965 0.754497 20.25 1.5 20.25H22.5C23.2455 20.25 23.8365 19.6965 23.952 18.984L14.535 13.029Z" fill="#EEEEEE" fill-opacity="0.25"/>
</svg>
