<svg width="28" height="28" viewBox="0 0 28 28" fill="none" xmlns="http://www.w3.org/2000/svg">
<g clip-path="url(#clip0)">
<path d="M26.7131 5.2323H1.28691C0.802703 5.2323 0.410156 5.62485 0.410156 6.10905V21.8908C0.410156 22.375 0.802703 22.7676 1.28691 22.7676H26.713C27.1972 22.7676 27.5898 22.375 27.5898 21.8908V6.1091C27.5898 5.62485 27.1973 5.2323 26.7131 5.2323Z" fill="#E5646E"/>
<path d="M14.4384 7.73737H27.5898V10.2424H14.4384V7.73737Z" fill="#F2F2F6"/>
<path d="M14 12.7474L14.4384 15.2525H27.5898V12.7474H14Z" fill="#F2F2F6"/>
<path d="M1.72528 19.2606V5.2323H1.28691C0.802703 5.2323 0.410156 5.62485 0.410156 6.10905V21.8908C0.410156 22.375 0.802758 22.7676 1.28691 22.7676H26.713C27.1972 22.7676 27.5898 22.375 27.5898 21.8908V21.4524H3.91721C2.70862 21.4524 1.72528 20.4692 1.72528 19.2606Z" fill="#DB4655"/>
<path d="M14.4384 5.2323H1.28691C0.802703 5.2323 0.410156 5.62485 0.410156 6.10905V15.2524H14.4384V5.2323Z" fill="#5055A0"/>
<path d="M0.410156 17.7576H27.5898V20.2626H0.410156V17.7576Z" fill="#F2F2F6"/>
<path d="M1.72528 5.2323H1.28691C0.802703 5.2323 0.410156 5.62485 0.410156 6.10905V15.2524H1.72528V5.2323Z" fill="#3F3F8F"/>
<path d="M1.72528 19.2606V17.7576H0.410156V20.2626H1.9792C1.82235 19.9609 1.72528 19.6235 1.72528 19.2606Z" fill="#E1E1E6"/>
<path d="M26.7131 4.8222H1.28691C0.577336 4.8222 0 5.39949 0 6.10911V21.8908C0 22.6005 0.577336 23.1777 1.28691 23.1777H26.7131C27.4227 23.1777 28 22.6005 28 21.8908V6.10911C28 5.39949 27.4227 4.8222 26.7131 4.8222ZM0.820312 18.1677H2.16371C2.39023 18.1677 2.57387 17.9841 2.57387 17.7576C2.57387 17.531 2.39023 17.3474 2.16371 17.3474H0.820312V15.6626H27.1797V17.3474H3.91699C3.69048 17.3474 3.50684 17.531 3.50684 17.7576C3.50684 17.9841 3.69048 18.1677 3.91699 18.1677H27.1797V19.8524H0.820312V18.1677ZM14.8485 10.6525H27.1797V12.3373H14.8485V10.6525ZM14.8485 13.1576H27.1797V14.8424H14.8485V13.1576ZM27.1797 6.10911V7.32722H26.2747C26.0482 7.32722 25.8646 7.51086 25.8646 7.73738C25.8646 7.96389 26.0482 8.14753 26.2747 8.14753H27.1797V9.83224H14.8485V8.14753H24.5211C24.7476 8.14753 24.9312 7.96389 24.9312 7.73738C24.9312 7.51086 24.7476 7.32722 24.5211 7.32722H14.8485V5.64252H26.7131C26.9703 5.64252 27.1797 5.85181 27.1797 6.10911ZM1.28691 5.64252H14.0282V14.8424H0.820312V6.10911C0.820312 5.85181 1.02966 5.64252 1.28691 5.64252ZM26.7131 22.3574H1.28691C1.0296 22.3574 0.820312 22.1481 0.820312 21.8908V20.6727H27.1797V21.8908C27.1797 22.1481 26.9703 22.3574 26.7131 22.3574Z" fill="black"/>
<path d="M2.16808 7.15857C2.3946 7.15857 2.57824 6.97493 2.57824 6.74841C2.57824 6.5219 2.3946 6.33826 2.16808 6.33826H2.16371C1.93719 6.33826 1.75574 6.5219 1.75574 6.74841C1.75574 6.97493 1.94151 7.15857 2.16808 7.15857Z" fill="black"/>
<path d="M2.16808 10.6656C2.3946 10.6656 2.57824 10.4819 2.57824 10.2554C2.57824 10.0289 2.3946 9.84528 2.16808 9.84528H2.16371C1.93719 9.84528 1.75574 10.0289 1.75574 10.2554C1.75574 10.4819 1.94151 10.6656 2.16808 10.6656Z" fill="black"/>
<path d="M2.16808 14.1727C2.3946 14.1727 2.57824 13.989 2.57824 13.7625C2.57824 13.5359 2.3946 13.3524 2.16808 13.3524H2.16371C1.93719 13.3524 1.75574 13.5359 1.75574 13.7625C1.75568 13.989 1.94151 14.1727 2.16808 14.1727Z" fill="black"/>
<path d="M2.16808 8.91205C2.3946 8.91205 2.57824 8.72841 2.57824 8.50189C2.57824 8.27538 2.3946 8.09174 2.16808 8.09174H2.16371C1.93719 8.09174 1.75574 8.27538 1.75574 8.50189C1.75574 8.72841 1.94151 8.91205 2.16808 8.91205Z" fill="black"/>
<path d="M2.16808 12.4192C2.3946 12.4192 2.57824 12.2355 2.57824 12.009C2.57824 11.7825 2.3946 11.5989 2.16808 11.5989H2.16371C1.93719 11.5989 1.75574 11.7825 1.75574 12.009C1.75568 12.2355 1.94151 12.4192 2.16808 12.4192Z" fill="black"/>
<path d="M12.6892 7.15857C12.9157 7.15857 13.0994 6.97493 13.0994 6.74841C13.0994 6.5219 12.9157 6.33826 12.6892 6.33826H12.6848C12.4583 6.33826 12.2769 6.5219 12.2769 6.74841C12.2769 6.97493 12.4627 7.15857 12.6892 7.15857Z" fill="black"/>
<path d="M12.6892 10.6656C12.9157 10.6656 13.0994 10.4819 13.0994 10.2554C13.0994 10.0289 12.9157 9.84528 12.6892 9.84528H12.6848C12.4583 9.84528 12.2769 10.0289 12.2769 10.2554C12.2769 10.4819 12.4627 10.6656 12.6892 10.6656Z" fill="black"/>
<path d="M12.6892 14.1727C12.9157 14.1727 13.0994 13.989 13.0994 13.7625C13.0994 13.5359 12.9157 13.3524 12.6892 13.3524H12.6848C12.4583 13.3524 12.2769 13.5359 12.2769 13.7625C12.2769 13.989 12.4627 14.1727 12.6892 14.1727Z" fill="black"/>
<path d="M12.6892 8.91205C12.9157 8.91205 13.0994 8.72841 13.0994 8.50189C13.0994 8.27538 12.9157 8.09174 12.6892 8.09174H12.6848C12.4583 8.09174 12.2769 8.27538 12.2769 8.50189C12.2769 8.72841 12.4627 8.91205 12.6892 8.91205Z" fill="black"/>
<path d="M12.6892 12.4192C12.9157 12.4192 13.0994 12.2355 13.0994 12.009C13.0994 11.7825 12.9157 11.5989 12.6892 11.5989H12.6848C12.4583 11.5989 12.2769 11.7825 12.2769 12.009C12.2769 12.2355 12.4627 12.4192 12.6892 12.4192Z" fill="black"/>
<path d="M4.79833 7.15857C5.02485 7.15857 5.20849 6.97493 5.20849 6.74841C5.20849 6.5219 5.02485 6.33826 4.79833 6.33826H4.79396C4.56744 6.33826 4.38599 6.5219 4.38599 6.74841C4.38599 6.97493 4.57181 7.15857 4.79833 7.15857Z" fill="black"/>
<path d="M4.79833 10.6656C5.02485 10.6656 5.20849 10.4819 5.20849 10.2554C5.20849 10.0289 5.02485 9.84528 4.79833 9.84528H4.79396C4.56744 9.84528 4.38599 10.0289 4.38599 10.2554C4.38599 10.4819 4.57181 10.6656 4.79833 10.6656Z" fill="black"/>
<path d="M4.79833 14.1727C5.02485 14.1727 5.20849 13.989 5.20849 13.7625C5.20849 13.5359 5.02485 13.3524 4.79833 13.3524H4.79396C4.56744 13.3524 4.38599 13.5359 4.38599 13.7625C4.38599 13.989 4.57181 14.1727 4.79833 14.1727Z" fill="black"/>
<path d="M4.79833 8.91205C5.02485 8.91205 5.20849 8.72841 5.20849 8.50189C5.20849 8.27538 5.02485 8.09174 4.79833 8.09174H4.79396C4.56744 8.09174 4.38599 8.27538 4.38599 8.50189C4.38599 8.72841 4.57181 8.91205 4.79833 8.91205Z" fill="black"/>
<path d="M4.79833 12.4192C5.02485 12.4192 5.20849 12.2355 5.20849 12.009C5.20849 11.7825 5.02485 11.5989 4.79833 11.5989H4.79396C4.56744 11.5989 4.38599 11.7825 4.38599 12.009C4.38599 12.2355 4.57181 12.4192 4.79833 12.4192Z" fill="black"/>
<path d="M3.48321 8.03528C3.70972 8.03528 3.89336 7.85164 3.89336 7.62512C3.89336 7.39861 3.70972 7.21497 3.48321 7.21497H3.47883C3.25231 7.21497 3.07086 7.39861 3.07086 7.62512C3.07086 7.85164 3.25669 8.03528 3.48321 8.03528Z" fill="black"/>
<path d="M3.48321 11.5424C3.70972 11.5424 3.89336 11.3587 3.89336 11.1322C3.89336 10.9057 3.70972 10.722 3.48321 10.722H3.47883C3.25231 10.722 3.07086 10.9057 3.07086 11.1322C3.07086 11.3587 3.25669 11.5424 3.48321 11.5424Z" fill="black"/>
<path d="M3.48321 9.78888C3.70972 9.78888 3.89336 9.60524 3.89336 9.37872C3.89336 9.15221 3.70972 8.96857 3.48321 8.96857H3.47883C3.25231 8.96857 3.07086 9.15221 3.07086 9.37872C3.07086 9.60524 3.25669 9.78888 3.48321 9.78888Z" fill="black"/>
<path d="M3.48321 13.296C3.70972 13.296 3.89336 13.1123 3.89336 12.8858C3.89336 12.6592 3.70972 12.4756 3.48321 12.4756H3.47883C3.25231 12.4756 3.07086 12.6592 3.07086 12.8858C3.07086 13.1123 3.25669 13.296 3.48321 13.296Z" fill="black"/>
<path d="M7.42864 7.15857C7.65515 7.15857 7.8388 6.97493 7.8388 6.74841C7.8388 6.5219 7.65515 6.33826 7.42864 6.33826H7.42426C7.19775 6.33826 7.0163 6.5219 7.0163 6.74841C7.0163 6.97493 7.20212 7.15857 7.42864 7.15857Z" fill="black"/>
<path d="M7.42864 10.6656C7.65515 10.6656 7.8388 10.4819 7.8388 10.2554C7.8388 10.0289 7.65515 9.84528 7.42864 9.84528H7.42426C7.19775 9.84528 7.0163 10.0289 7.0163 10.2554C7.0163 10.4819 7.20212 10.6656 7.42864 10.6656Z" fill="black"/>
<path d="M7.42864 14.1727C7.65515 14.1727 7.8388 13.989 7.8388 13.7625C7.8388 13.5359 7.65515 13.3524 7.42864 13.3524H7.42426C7.19775 13.3524 7.0163 13.5359 7.0163 13.7625C7.0163 13.989 7.20212 14.1727 7.42864 14.1727Z" fill="black"/>
<path d="M7.42864 8.91205C7.65515 8.91205 7.8388 8.72841 7.8388 8.50189C7.8388 8.27538 7.65515 8.09174 7.42864 8.09174H7.42426C7.19775 8.09174 7.0163 8.27538 7.0163 8.50189C7.0163 8.72841 7.20212 8.91205 7.42864 8.91205Z" fill="black"/>
<path d="M7.42864 12.4192C7.65515 12.4192 7.8388 12.2355 7.8388 12.009C7.8388 11.7825 7.65515 11.5989 7.42864 11.5989H7.42426C7.19775 11.5989 7.0163 11.7825 7.0163 12.009C7.0163 12.2355 7.20212 12.4192 7.42864 12.4192Z" fill="black"/>
<path d="M6.11352 8.03528C6.34003 8.03528 6.52367 7.85164 6.52367 7.62512C6.52367 7.39861 6.34003 7.21497 6.11352 7.21497H6.10909C5.88257 7.21497 5.70117 7.39861 5.70117 7.62512C5.70117 7.85164 5.887 8.03528 6.11352 8.03528Z" fill="black"/>
<path d="M6.11352 11.5424C6.34003 11.5424 6.52367 11.3587 6.52367 11.1322C6.52367 10.9057 6.34003 10.722 6.11352 10.722H6.10909C5.88257 10.722 5.70117 10.9057 5.70117 11.1322C5.70117 11.3587 5.887 11.5424 6.11352 11.5424Z" fill="black"/>
<path d="M6.11352 9.78888C6.34003 9.78888 6.52367 9.60524 6.52367 9.37872C6.52367 9.15221 6.34003 8.96857 6.11352 8.96857H6.10909C5.88257 8.96857 5.70117 9.15221 5.70117 9.37872C5.70117 9.60524 5.887 9.78888 6.11352 9.78888Z" fill="black"/>
<path d="M6.11352 13.296C6.34003 13.296 6.52367 13.1123 6.52367 12.8858C6.52367 12.6592 6.34003 12.4756 6.11352 12.4756H6.10909C5.88257 12.4756 5.70117 12.6592 5.70117 12.8858C5.70117 13.1123 5.887 13.296 6.11352 13.296Z" fill="black"/>
<path d="M10.0546 7.15857C10.2811 7.15857 10.4647 6.97493 10.4647 6.74841C10.4647 6.5219 10.2811 6.33826 10.0546 6.33826H10.0502C9.82366 6.33826 9.64221 6.5219 9.64221 6.74841C9.64221 6.97493 9.82804 7.15857 10.0546 7.15857Z" fill="black"/>
<path d="M10.0546 10.6656C10.2811 10.6656 10.4647 10.4819 10.4647 10.2554C10.4647 10.0289 10.2811 9.84528 10.0546 9.84528H10.0502C9.82366 9.84528 9.64221 10.0289 9.64221 10.2554C9.64221 10.4819 9.82804 10.6656 10.0546 10.6656Z" fill="black"/>
<path d="M10.0546 14.1727C10.2811 14.1727 10.4647 13.989 10.4647 13.7625C10.4647 13.5359 10.2811 13.3524 10.0546 13.3524H10.0502C9.82366 13.3524 9.64221 13.5359 9.64221 13.7625C9.64221 13.989 9.82804 14.1727 10.0546 14.1727Z" fill="black"/>
<path d="M10.0546 8.91205C10.2811 8.91205 10.4647 8.72841 10.4647 8.50189C10.4647 8.27538 10.2811 8.09174 10.0546 8.09174H10.0502C9.82366 8.09174 9.64221 8.27538 9.64221 8.50189C9.64221 8.72841 9.82804 8.91205 10.0546 8.91205Z" fill="black"/>
<path d="M10.0546 12.4192C10.2811 12.4192 10.4647 12.2355 10.4647 12.009C10.4647 11.7825 10.2811 11.5989 10.0546 11.5989H10.0502C9.82366 11.5989 9.64221 11.7825 9.64221 12.009C9.64221 12.2355 9.82804 12.4192 10.0546 12.4192Z" fill="black"/>
<path d="M8.73943 8.03528C8.96595 8.03528 9.14959 7.85164 9.14959 7.62512C9.14959 7.39861 8.96595 7.21497 8.73943 7.21497H8.735C8.50849 7.21497 8.32709 7.39861 8.32709 7.62512C8.32709 7.85164 8.51292 8.03528 8.73943 8.03528Z" fill="black"/>
<path d="M8.73943 11.5424C8.96595 11.5424 9.14959 11.3587 9.14959 11.1322C9.14959 10.9057 8.96595 10.722 8.73943 10.722H8.735C8.50849 10.722 8.32709 10.9057 8.32709 11.1322C8.32709 11.3587 8.51292 11.5424 8.73943 11.5424Z" fill="black"/>
<path d="M8.73943 9.78888C8.96595 9.78888 9.14959 9.60524 9.14959 9.37872C9.14959 9.15221 8.96595 8.96857 8.73943 8.96857H8.735C8.50849 8.96857 8.32709 9.15221 8.32709 9.37872C8.32709 9.60524 8.51292 9.78888 8.73943 9.78888Z" fill="black"/>
<path d="M8.73943 13.296C8.96595 13.296 9.14959 13.1123 9.14959 12.8858C9.14959 12.6592 8.96595 12.4756 8.73943 12.4756H8.735C8.50849 12.4756 8.32709 12.6592 8.32709 12.8858C8.32709 13.1123 8.51292 13.296 8.73943 13.296Z" fill="black"/>
<path d="M11.3741 8.03528C11.6006 8.03528 11.7842 7.85164 11.7842 7.62512C11.7842 7.39861 11.6006 7.21497 11.3741 7.21497H11.3697C11.1432 7.21497 10.9617 7.39861 10.9617 7.62512C10.9617 7.85164 11.1476 8.03528 11.3741 8.03528Z" fill="black"/>
<path d="M11.3741 11.5424C11.6006 11.5424 11.7842 11.3587 11.7842 11.1322C11.7842 10.9057 11.6006 10.722 11.3741 10.722H11.3697C11.1432 10.722 10.9617 10.9057 10.9617 11.1322C10.9617 11.3587 11.1476 11.5424 11.3741 11.5424Z" fill="black"/>
<path d="M11.3741 9.78888C11.6006 9.78888 11.7842 9.60524 11.7842 9.37872C11.7842 9.15221 11.6006 8.96857 11.3741 8.96857H11.3697C11.1432 8.96857 10.9617 9.15221 10.9617 9.37872C10.9617 9.60524 11.1476 9.78888 11.3741 9.78888Z" fill="black"/>
<path d="M11.3741 13.296C11.6006 13.296 11.7842 13.1123 11.7842 12.8858C11.7842 12.6592 11.6006 12.4756 11.3741 12.4756H11.3697C11.1432 12.4756 10.9617 12.6592 10.9617 12.8858C10.9617 13.1123 11.1476 13.296 11.3741 13.296Z" fill="black"/>
</g>
<defs>
<clipPath id="clip0">
<rect width="28" height="28" fill="white"/>
</clipPath>
</defs>
</svg>
